<svg width="27" height="27" viewBox="0 0 27 27" fill="none" xmlns="http://www.w3.org/2000/svg">
<path d="M25 21.9258V13.8094C25.0001 13.2447 24.8834 12.686 24.6572 12.1674C24.4309 11.6488 24.0999 11.1813 23.6843 10.7935L15.9427 3.56697C15.5528 3.20287 15.0366 3 14.5 3C13.9634 3 13.4472 3.20287 13.0573 3.56697L5.31565 10.7935C4.90009 11.1813 4.56905 11.6488 4.34282 12.1674C4.1166 12.686 3.99994 13.2447 4 13.8094V21.9258C4 22.4759 4.22125 23.0035 4.61508 23.3925C5.0089 23.7815 5.54305 24 6.1 24H22.9C23.457 24 23.9911 23.7815 24.3849 23.3925C24.7787 23.0035 25 22.4759 25 21.9258Z" fill="white" stroke="white" stroke-width="2" stroke-linecap="round" stroke-linejoin="round"/>
</svg>
