<svg width="40" height="37" viewBox="0 0 40 37" fill="none" xmlns="http://www.w3.org/2000/svg">
<path d="M0.856445 18.4609C0.856445 15.0133 1.66787 11.9158 3.29071 9.16846C4.96765 6.42113 7.23963 4.23942 10.1067 2.62334C13.0278 1.00726 16.3817 0.199219 20.1683 0.199219C24.009 0.199219 27.3359 1.00726 30.1488 2.62334C33.0158 4.23942 35.2337 6.42113 36.8024 9.16846C38.3712 11.9158 39.1556 15.0133 39.1556 18.4609C39.1556 21.9086 38.3712 25.033 36.8024 27.8342C35.2337 30.5815 33.0158 32.7632 30.1488 34.3793C27.2818 35.9954 23.9279 36.8034 20.0872 36.8034C16.3546 36.8034 13.0278 36.0762 10.1067 34.6217C7.23963 33.1134 4.96765 30.9855 3.29071 28.2382C1.66787 25.4909 0.856445 22.2318 0.856445 18.4609ZM10.0255 18.5417C10.0255 20.5888 10.4583 22.4472 11.3238 24.1172C12.1893 25.7333 13.3523 27.0261 14.8129 27.9958C16.3276 28.9116 18.0315 29.3695 19.9249 29.3695C22.9001 29.3695 25.3073 28.3459 27.1465 26.2989C28.9857 24.198 29.9054 21.6123 29.9054 18.5417C29.9054 15.4712 28.9857 12.8854 27.1465 10.7845C25.3073 8.68364 22.9001 7.63319 19.9249 7.63319C18.0315 7.63319 16.3276 8.14494 14.8129 9.16846C13.3523 10.1381 12.1893 11.4579 11.3238 13.1279C10.4583 14.7439 10.0255 16.5486 10.0255 18.5417Z" fill="white"/>
</svg>
