<svg width="27" height="27" viewBox="0 0 27 27" fill="none" xmlns="http://www.w3.org/2000/svg">
<path d="M0.427516 9.80623L0.427501 9.80622C0.223736 9.69717 0.1 9.49308 0.1 9.2739C0.1 9.05472 0.223744 8.85063 0.427336 8.74158C0.42734 8.74158 0.427344 8.74158 0.427348 8.74157L12.6845 2.17878L12.6845 2.17878C12.8806 2.07374 13.1194 2.07374 13.3155 2.17878L13.3155 2.17878L25.5727 8.74157C25.7763 8.85062 25.9 9.05472 25.9 9.2739C25.9 9.49308 25.7763 9.69717 25.5725 9.80622L25.6197 9.89439L25.5725 9.80622L24.9141 10.1587L24.8613 10.1869V10.2468V13.8357V13.9357H24.9613C25.3205 13.9357 25.6042 14.2134 25.6042 14.5468C25.6042 14.8802 25.3205 15.1579 24.9613 15.1579H23.4756C23.1165 15.1579 22.8328 14.8802 22.8328 14.5468C22.8328 14.2134 23.1165 13.9357 23.4756 13.9357H23.5756V13.8357V11.0423V10.8753L23.4284 10.9541L22.4211 11.4935L22.3683 11.5217V11.5816V20.4663C22.3683 21.832 21.4172 23.0645 20.0504 23.4591L20.0782 23.5551L20.0504 23.4591C17.7389 24.1267 15.4005 24.46 13.0519 24.46C10.6952 24.46 8.3277 24.1242 5.96515 23.452L5.96511 23.452C4.58921 23.0611 3.63165 21.8265 3.63165 20.4548V11.5816V11.5217L3.57886 11.4935L0.427516 9.80623ZM6.33354 22.2812L6.3609 22.185L6.33354 22.2812C10.802 23.5518 15.2922 23.5558 19.677 22.2894C20.5029 22.0513 21.0826 21.3031 21.0826 20.4663V12.377V12.21L20.9354 12.2888L13.3153 16.3687L13.3153 16.3687C13.2176 16.4211 13.1089 16.4475 13 16.4475C12.8911 16.4475 12.7824 16.4211 12.6847 16.3687L12.6847 16.3687L5.06457 12.2888L4.91737 12.21V12.377V20.4548C4.91737 21.2955 5.50163 22.0446 6.33354 22.2812ZM13.0472 3.43787L13 3.4126L12.9528 3.43787L2.21746 9.18574L2.0528 9.27391L2.21746 9.36206L12.9528 15.1096L13 15.1349L13.0472 15.1096L23.7825 9.36206L23.9472 9.27391L23.7825 9.18574L13.0472 3.43787Z" fill="white" stroke="#0A1733" stroke-width="0.2"/>
</svg>
