<svg width="18" height="17" viewBox="0 0 18 17" fill="none" xmlns="http://www.w3.org/2000/svg">
<path d="M0.458252 8.25525C0.458252 6.70932 0.820579 5.32041 1.54523 4.08849C2.29404 2.85658 3.30856 1.8783 4.58878 1.15365C5.89315 0.428992 7.39077 0.0666656 9.08163 0.0666656C10.7966 0.0666656 12.2822 0.428992 13.5382 1.15365C14.8185 1.8783 15.8088 2.85658 16.5093 4.08849C17.2098 5.32041 17.5601 6.70932 17.5601 8.25525C17.5601 9.80118 17.2098 11.2022 16.5093 12.4582C15.8088 13.6902 14.8185 14.6684 13.5382 15.3931C12.258 16.1177 10.7604 16.4801 9.0454 16.4801C7.37869 16.4801 5.89315 16.154 4.58878 15.5018C3.30856 14.8254 2.29404 13.8713 1.54523 12.6394C0.820579 11.4075 0.458252 9.94611 0.458252 8.25525ZM4.55255 8.29148C4.55255 9.20938 4.74579 10.0427 5.13227 10.7915C5.51875 11.5162 6.03808 12.0959 6.69027 12.5307C7.36662 12.9413 8.1275 13.1467 8.97293 13.1467C10.3015 13.1467 11.3764 12.6877 12.1976 11.7698C13.0189 10.8278 13.4296 9.66833 13.4296 8.29148C13.4296 6.91464 13.0189 5.7552 12.1976 4.81315C11.3764 3.8711 10.3015 3.40007 8.97293 3.40007C8.1275 3.40007 7.36662 3.62955 6.69027 4.08849C6.03808 4.52329 5.51875 5.11509 5.13227 5.86389C4.74579 6.58855 4.55255 7.39775 4.55255 8.29148Z" fill="#FFC701"/>
</svg>
